<svg xmlns="http://www.w3.org/2000/svg" style="display: none;"><symbol id="erase-text" viewBox="0 0 612.002 612.002"><title>erase-text</title><path d="M594.464,534.414H344.219L606.866,271.77c6.848-6.851,6.848-17.953,0-24.8L407.547,47.65 c-3.291-3.288-7.749-5.135-12.401-5.135c-4.65,0-9.11,1.847-12.398,5.135L5.138,425.262c-6.851,6.848-6.851,17.95,0,24.8 l114.29,114.287c3.288,3.291,7.749,5.138,12.398,5.138h462.638c9.684,0,17.536-7.852,17.536-17.536 C612,542.265,604.148,534.414,594.464,534.414z M395.145,84.851L569.664,259.37L363.27,465.763L188.753,291.245L395.145,84.851z M294.618,534.414H139.09L42.336,437.66l121.617-121.617l174.519,174.519L294.618,534.414z"/></symbol><symbol id="ruler" viewBox="-132 0 579 579.191"><title>ruler</title><path d="M 167.996094 0 L 10.992188 0 C 4.953125 0 0.0507812 4.902344 0.0507812 10.941406 L 0.0507812 568.058594 C 0.0507812 574.097656 4.953125 579 10.992188 579 L 167.996094 579 C 174.035156 579 178.9375 574.097656 178.9375 568.058594 L 178.9375 10.941406 C 178.9375 4.902344 174.035156 0 167.996094 0 Z M 157.054688 73.851562 L 130.03125 73.851562 C 123.992188 73.851562 119.089844 78.753906 119.089844 84.792969 C 119.089844 90.832031 123.992188 95.734375 130.03125 95.734375 L 157.054688 95.734375 L 157.054688 132.277344 L 130.03125 132.277344 C 123.992188 132.277344 119.089844 137.179688 119.089844 143.21875 C 119.089844 149.257812 123.992188 154.160156 130.03125 154.160156 L 157.054688 154.160156 L 157.054688 191.03125 L 105.414062 191.03125 C 99.375 191.03125 94.472656 195.933594 94.472656 201.972656 C 94.472656 208.011719 99.375 212.914062 105.414062 212.914062 L 157.054688 212.914062 L 157.054688 249.457031 L 130.03125 249.457031 C 123.992188 249.457031 119.089844 254.359375 119.089844 260.398438 C 119.089844 266.4375 123.992188 271.339844 130.03125 271.339844 L 157.054688 271.339844 L 157.054688 307.992188 L 130.03125 307.992188 C 123.992188 307.992188 119.089844 312.894531 119.089844 318.933594 C 119.089844 324.972656 123.992188 329.875 130.03125 329.875 L 157.054688 329.875 L 157.054688 366.089844 L 105.414062 366.089844 C 99.375 366.089844 94.472656 370.992188 94.472656 377.03125 C 94.472656 383.070312 99.375 387.972656 105.414062 387.972656 L 157.054688 387.972656 L 157.054688 424.515625 L 130.03125 424.515625 C 123.992188 424.515625 119.089844 429.417969 119.089844 435.457031 C 119.089844 441.496094 123.992188 446.398438 130.03125 446.398438 L 157.054688 446.398438 L 157.054688 482.941406 L 130.03125 482.941406 C 123.992188 482.941406 119.089844 487.84375 119.089844 493.882812 C 119.089844 499.921875 123.992188 504.824219 130.03125 504.824219 L 157.054688 504.824219 L 157.054688 556.792969 L 21.933594 556.792969 L 21.933594 21.882812 L 157.054688 21.882812 Z M 157.054688 73.851562 " style=" stroke:none;fill-rule:nonzero;fill:rgb(0%,0%,0%);fill-opacity:1;"/><path d="M 303.992188 107.332031 C 310.03125 107.332031 314.933594 102.429688 314.933594 96.390625 C 314.933594 93.785156 314.003906 91.257812 312.308594 89.277344 L 278.5 30.414062 C 275.46875 25.1875 268.773438 23.414062 263.546875 26.445312 C 261.890625 27.394531 260.523438 28.773438 259.574219 30.414062 L 224.671875 90.921875 C 221.652344 96.148438 223.445312 102.847656 228.675781 105.863281 C 230.351562 106.828125 232.253906 107.34375 234.191406 107.332031 L 258.152344 107.332031 L 258.152344 471.667969 L 234.191406 471.667969 C 228.152344 471.644531 223.226562 476.527344 223.207031 482.566406 C 223.195312 484.503906 223.707031 486.40625 224.671875 488.078125 L 259.574219 548.585938 C 262.605469 553.8125 269.300781 555.585938 274.53125 552.554688 C 276.183594 551.605469 277.550781 550.226562 278.5 548.585938 L 313.402344 488.078125 C 316.421875 482.851562 314.628906 476.152344 309.398438 473.136719 C 307.722656 472.171875 305.820312 471.65625 303.882812 471.667969 L 279.921875 471.667969 L 279.921875 107.332031 Z M 285.066406 493.550781 L 269.09375 521.230469 L 253.117188 493.550781 Z M 253.117188 85.449219 L 269.09375 57.769531 L 285.066406 85.449219 C 285.066406 85.449219 253.117188 85.449219 253.117188 85.449219 Z M 253.117188 85.449219 " style=" stroke:none;fill-rule:nonzero;fill:rgb(0%,0%,0%);fill-opacity:1;"/></symbol></svg>